<svg width="125" height="124" viewBox="0 0 125 124" fill="none" xmlns="http://www.w3.org/2000/svg">
<path d="M0.333496 62.0001C0.333496 27.7584 28.0919 0 62.3336 0C96.5753 0 124.334 27.7584 124.334 62.0001V124H0.333496V62.0001Z" fill="#F3AFA8"/>
<path d="M32.502 98.0559L39.1002 98.0559L39.1002 91.2278L32.502 91.2278L32.502 98.0559ZM87.4354 42.0453C87.4354 41.5834 87.0735 41.209 86.6272 41.209L79.3542 41.209C78.9079 41.209 78.5461 41.5834 78.5461 42.0453C78.5461 42.5071 78.9079 42.8815 79.3542 42.8815L85.8191 42.8815L85.8191 49.5717C85.8191 50.0335 86.1809 50.4079 86.6272 50.4079C87.0735 50.4079 87.4354 50.0335 87.4354 49.5717L87.4354 42.0453ZM36.3725 95.2332L87.1987 42.6366L86.0558 41.4539L35.2297 94.0505L36.3725 95.2332Z" fill="#2D2D2D"/>
</svg>
