<svg width="55" height="105" viewBox="0 0 55 105" fill="none" xmlns="http://www.w3.org/2000/svg">
<path d="M1.10705 30.0933C1.45497 30.4441 1.86891 30.7225 2.32498 30.9125C2.78105 31.1025 3.27023 31.2004 3.76429 31.2004C4.25836 31.2004 4.74754 31.1025 5.20361 30.9125C5.65968 30.7225 6.07362 30.4441 6.42154 30.0933L23.6375 12.8774L23.6375 100.978C23.6375 101.971 24.0318 102.923 24.7337 103.625C25.4355 104.326 26.3875 104.721 27.3801 104.721C28.3727 104.721 29.3246 104.326 30.0265 103.625C30.7284 102.923 31.1227 101.971 31.1227 100.978L31.1227 12.9522L48.2263 30.0933C48.9276 30.7904 49.8761 31.1816 50.8649 31.1816C51.8536 31.1816 52.8022 30.7904 53.5034 30.0933C54.2005 29.3921 54.5917 28.4435 54.5917 27.4548C54.5917 26.466 54.2005 25.5175 53.5034 24.8163L29.7005 1.01333C29.3931 0.692961 29.0241 0.438048 28.6157 0.263907C28.2073 0.0897662 27.7679 -1.21377e-06 27.3239 -1.19437e-06C26.88 -1.17496e-06 26.4406 0.0897663 26.0322 0.263907C25.6237 0.438048 25.2548 0.692962 24.9474 1.01334L1.10705 24.7788C0.756263 25.1267 0.477836 25.5407 0.287829 25.9968C0.0978224 26.4528 -3.39981e-06 26.942 -3.37822e-06 27.4361C-3.35662e-06 27.9301 0.0978225 28.4193 0.287829 28.8754C0.477836 29.3315 0.756263 29.7454 1.10705 30.0933Z" fill="black"/>
</svg>
