<svg width="44" height="28" viewBox="0 0 44 28" fill="none" xmlns="http://www.w3.org/2000/svg">
<path d="M12.7612 0C14.0564 0 15.2219 0.113903 16.2907 0.346176C17.3528 0.576215 18.2588 0.955891 19.0241 1.48074C19.7784 2.00558 20.3677 2.7024 20.7921 3.57789C21.2034 4.44221 21.4079 5.52317 21.4079 6.80067C21.4079 8.18537 21.1 9.34227 20.4821 10.2647C19.8597 11.1893 18.9427 11.9464 17.72 12.5315C19.3847 13.0207 20.6184 13.876 21.4365 15.091C22.2589 16.3171 22.6613 17.7845 22.6613 19.5042C22.6613 20.9001 22.3997 22.0994 21.8741 23.1066C21.3676 24.0989 20.6329 24.9524 19.7322 25.5946C18.7993 26.2544 17.7572 26.7386 16.6557 27.024C15.5008 27.3319 14.3115 27.4866 13.1174 27.4841H0V0H12.7612ZM11.9893 11.1044C13.0448 11.1044 13.9201 10.8498 14.6106 10.3339C15.2967 9.82468 15.6287 8.98493 15.6287 7.83473C15.6287 7.19598 15.5166 6.6689 15.2967 6.25572C15.0824 5.85822 14.7654 5.5277 14.3797 5.29983C13.976 5.05668 13.5305 4.89372 13.0668 4.81965C12.5615 4.72393 12.0481 4.67831 11.5341 4.68342H5.95946V11.1044H11.9893ZM12.3213 22.8051C12.9085 22.8051 13.4671 22.7538 13.9926 22.6332C14.5226 22.517 14.9932 22.3294 15.3934 22.0503C15.7937 21.7822 16.1235 21.4182 16.361 20.9537C16.6007 20.4936 16.7173 19.8928 16.7173 19.1714C16.7173 17.7554 16.3236 16.7482 15.5452 16.1385C14.7645 15.5355 13.7178 15.2362 12.4357 15.2362H5.95946V22.8074H12.3213V22.8051ZM31.1563 22.7136C31.9634 23.5131 33.1267 23.9151 34.6396 23.9151C35.7238 23.9151 36.6606 23.636 37.45 23.0821C38.2285 22.526 38.7035 21.9319 38.886 21.3177H43.625C42.8641 23.7119 41.7096 25.4227 40.1307 26.4523C38.5716 27.4863 36.6738 28 34.4571 28C32.9134 28 31.5236 27.7476 30.2789 27.2473C29.0842 26.7748 28.0046 26.0449 27.1144 25.1078C26.239 24.1488 25.5622 23.021 25.1243 21.7912C24.6429 20.4313 24.4046 18.995 24.4206 17.55C24.4206 16.0625 24.6647 14.6711 25.1441 13.3869C25.5992 12.1456 26.298 11.0111 27.198 10.0525C28.0886 9.11446 29.1442 8.37521 30.3735 7.8325C31.6661 7.28035 33.0571 7.00511 34.4593 7.02401C36.1174 7.02401 37.5666 7.35008 38.8113 8.0067C40.0183 8.63349 41.0649 9.53735 41.868 10.6466C42.6662 11.7476 43.2358 13.0095 43.5898 14.4232C43.9439 15.8347 44.067 17.3088 43.9659 18.852H29.8237C29.8259 20.4243 30.3471 21.914 31.1563 22.7136ZM37.3401 12.2591C36.7002 11.5399 35.6182 11.1513 34.2944 11.1513C33.4346 11.1513 32.7243 11.2965 32.1525 11.5958C31.6297 11.8639 31.1659 12.237 30.7891 12.6923C30.4581 13.1058 30.2128 13.5828 30.0678 14.0949C29.9409 14.5219 29.8591 14.9614 29.8237 15.4059H38.5804C38.4528 14.0123 37.9822 12.9827 37.3401 12.2591ZM28.7242 1.84478H39.6953V4.55835H28.7242V1.84478Z" fill="black"/>
</svg>
