<svg width="31" height="32" viewBox="0 0 31 32" fill="none" xmlns="http://www.w3.org/2000/svg">
<path d="M15.4879 7.75693C13.3768 7.75693 11.3522 8.62128 9.85937 10.1598C8.36658 11.6984 7.52793 13.7851 7.52793 15.961C7.52793 18.1368 8.36658 20.2235 9.85937 21.7621C11.3522 23.3006 13.3768 24.165 15.4879 24.165C17.5991 24.165 19.6237 23.3006 21.1165 21.7621C22.6093 20.2235 23.448 18.1368 23.448 15.961C23.448 13.7851 22.6093 11.6984 21.1165 10.1598C19.6237 8.62128 17.5991 7.75693 15.4879 7.75693ZM15.4879 21.289C14.1164 21.289 12.8011 20.7274 11.8313 19.7279C10.8615 18.7284 10.3167 17.3727 10.3167 15.9592C10.3167 14.5456 10.8615 13.19 11.8313 12.1905C12.8011 11.1909 14.1164 10.6294 15.4879 10.6294C16.8595 10.6294 18.1748 11.1909 19.1446 12.1905C20.1144 13.19 20.6592 14.5456 20.6592 15.9592C20.6592 17.3727 20.1144 18.7284 19.1446 19.7279C18.1748 20.7274 16.8595 21.289 15.4879 21.289Z" fill="black"/>
<path d="M23.763 9.36793C24.7879 9.36793 25.6187 8.51162 25.6187 7.45531C25.6187 6.399 24.7879 5.54269 23.763 5.54269C22.7381 5.54269 21.9073 6.399 21.9073 7.45531C21.9073 8.51162 22.7381 9.36793 23.763 9.36793Z" fill="black"/>
<path d="M30.1789 5.51076C29.7804 4.45009 29.1714 3.48686 28.3909 2.68274C27.6103 1.87862 26.6755 1.25131 25.6463 0.840985C24.4418 0.374996 23.1694 0.123027 21.8832 0.0958082C20.2254 0.0212906 19.7004 0 15.4966 0C11.2928 0 10.7539 -1.76254e-07 9.10995 0.0958082C7.82469 0.121635 6.55317 0.373655 5.35029 0.840985C4.32075 1.25083 3.3857 1.87797 2.60514 2.68215C1.82458 3.48634 1.21574 4.44981 0.817692 5.51076C0.365473 6.75203 0.12156 8.06358 0.0964016 9.38922C0.0223789 11.096 0 11.6372 0 15.9716C0 20.3043 -1.71011e-08 20.8561 0.0964016 22.554C0.122223 23.8811 0.364949 25.1905 0.817692 26.4342C1.21686 27.4948 1.82629 28.4579 2.60704 29.262C3.38779 30.066 4.32269 30.6934 5.35201 31.104C6.55261 31.5887 7.82466 31.8587 9.11339 31.9024C10.7712 31.9769 11.2962 32 15.5 32C19.7038 32 20.2426 32 21.8866 31.9024C23.1727 31.8755 24.4451 31.6241 25.6497 31.159C26.6787 30.7477 27.6132 30.1199 28.3937 29.3155C29.1741 28.5112 29.7833 27.548 30.1823 26.4875C30.6351 25.2455 30.8778 23.9361 30.9036 22.609C30.9776 20.9022 31 20.3611 31 16.0266C31 11.6922 31 11.1422 30.9036 9.44422C30.8836 8.09984 30.6384 6.76913 30.1789 5.51076ZM28.0821 22.4227C28.071 23.4452 27.8899 24.4582 27.5468 25.4176C27.2882 26.1076 26.8925 26.7341 26.3849 27.2569C25.8773 27.7797 25.2692 28.1873 24.5996 28.4533C23.679 28.8054 22.7066 28.992 21.7248 29.0051C20.0894 29.0832 19.6281 29.1027 15.4346 29.1027C11.2377 29.1027 10.809 29.1027 9.14266 29.0051C8.1613 28.9927 7.18937 28.8061 6.26955 28.4533C5.59764 28.1889 4.98706 27.7821 4.47732 27.2592C3.96758 26.7363 3.57002 26.1089 3.31036 25.4176C2.972 24.4685 2.79102 23.4674 2.77499 22.4564C2.70097 20.7709 2.68375 20.2954 2.68375 15.9734C2.68375 11.6496 2.68375 11.2078 2.77499 9.48858C2.78612 8.46666 2.9672 7.45428 3.31036 6.49545C3.83541 5.09559 4.91132 3.99379 6.26955 3.45797C7.18982 3.10692 8.16147 2.92032 9.14266 2.90619C10.7798 2.8299 11.2394 2.8086 15.4346 2.8086C19.6298 2.8086 20.0601 2.80861 21.7248 2.90619C22.7067 2.91836 23.6793 3.10503 24.5996 3.45797C25.2691 3.72459 25.8772 4.13254 26.3847 4.65563C26.8923 5.17872 27.2881 5.80541 27.5468 6.49545C27.8851 7.44458 28.0661 8.44562 28.0821 9.45664C28.1562 11.1439 28.1751 11.6177 28.1751 15.9415C28.1751 20.2635 28.1751 20.7283 28.1011 22.4245H28.0821V22.4227Z" fill="black"/>
</svg>
